<?xml version="1.0" encoding="UTF-8" standalone="no"?>
<svg
   xmlns:dc="http://purl.org/dc/elements/1.1/"
   xmlns:cc="http://creativecommons.org/ns#"
   xmlns:rdf="http://www.w3.org/1999/02/22-rdf-syntax-ns#"
   xmlns:svg="http://www.w3.org/2000/svg"
   xmlns="http://www.w3.org/2000/svg"
   xmlns:sodipodi="http://sodipodi.sourceforge.net/DTD/sodipodi-0.dtd"
   xmlns:inkscape="http://www.inkscape.org/namespaces/inkscape"
   width="761.34485"
   height="761.34485"
   viewBox="0 0 609.07588 609.07588"
   version="1.1"
   id="svg2"
   inkscape:version="0.48.4 r9939"
   sodipodi:docname="Michael_Jackson.svg"
   inkscape:export-filename="C:\Users\john\Desktop\Michael_Jackson.png"
   inkscape:export-xdpi="90"
   inkscape:export-ydpi="90">
  <metadata
     id="metadata14">
    <rdf:RDF>
      <cc:Work
         rdf:about="">
        <dc:format>image/svg+xml</dc:format>
        <dc:type
           rdf:resource="http://purl.org/dc/dcmitype/StillImage" />
        <dc:title></dc:title>
      </cc:Work>
    </rdf:RDF>
  </metadata>
  <defs
     id="defs12" />
  <sodipodi:namedview
     pagecolor="#ffffff"
     bordercolor="#666666"
     borderopacity="1"
     objecttolerance="10"
     gridtolerance="10"
     guidetolerance="10"
     inkscape:pageopacity="0"
     inkscape:pageshadow="2"
     inkscape:window-width="958"
     inkscape:window-height="639"
     id="namedview10"
     showgrid="false"
     fit-margin-top="0"
     fit-margin-left="0"
     fit-margin-right="0"
     fit-margin-bottom="0"
     inkscape:zoom="0.31052632"
     inkscape:cx="-1.6276895"
     inkscape:cy="642.73938"
     inkscape:window-x="104"
     inkscape:window-y="60"
     inkscape:window-maximized="0"
     inkscape:current-layer="svg2" />
  <g
     id="#ffffffff"
     transform="translate(129.39687,4.9016474)">
    <path
       d="m 177.26,108.77 c 1.8,4.07 7.1,6.21 5.71,11.24 -1.06,6.12 2.46,13.84 -1.74,19.13 -1.11,-5.11 -1.11,-11.06 -4.14,-15.36 0.58,6.43 -1.83,13.6 1.42,19.57 1.26,4.51 5.45,8.78 3.66,13.67 -1.24,7.34 -4.05,14.19 -6.99,20.97 0.94,4.99 2.73,9.86 2.75,15 0.85,4.55 -1.68,10.37 1.85,14.17 0.04,-6.37 4.74,-11.64 4.48,-18.08 1.27,-7.33 1.31,-14.68 0.71,-22.08 l 0.94,0.03 c 1.54,20.61 3.83,43.79 -9.47,61.31 -0.67,3.66 -2.38,7.41 -5.45,9.65 -3.41,1.56 -3.03,5.95 -6.24,7.84 -6.27,0.6 -12.53,-0.01 -18.72,-0.97 6.13,-12.86 17.53,-23.23 20.33,-37.55 1.69,-4.19 3.5,-8.61 2.42,-13.23 -1.62,-4.04 0.8,-8.3 -0.15,-12.43 -0.66,-10.25 -4.81,-20.34 -2.67,-30.67 0.12,-2.49 -1.62,-4.87 -0.5,-7.34 1.95,-5.43 1.29,-13.02 6.75,-16.38 1.97,-5.92 5.72,-11.75 5.05,-18.49 z"
       id="path5"
       inkscape:connector-curvature="0"
       style="fill:#ffffff" />
  </g>
  <path
     style="fill:#010101"
     inkscape:connector-curvature="0"
     id="path8"
     d="m 336.66687,10.171648 c 3.26,-1.57 5.25,2.4 7.81,3.64 2.02,1.44 4.67,1.38 6.99,2.07 -1.49,-1.93 -3.23,-3.7 -4.11,-6.03 3.52,-0.35 5.69,3.04 8.26,4.82 2.27,3.46 8.73,2.17 9.19,6.92 0.3,3.22 3.44,4.91 3.96,8.03 2.02,1.93 4.51,3.31 6.33,5.48 0.5,2.48 0.64,5.74 3.31,6.93 0.13,-2.12 -0.52,-4.14 -0.99,-6.17 5.56,0.01 2.9,8.35 5.82,11.22 3.74,2.11 6.13,6.750005 4.27,10.840005 0.01,2.84 -3.48,3.17 -4.84,5.22 -0.02,6.57 -4.61,12.05999 -4.49,18.64999 -2.8,6.68 -6.36,13.17 -7.48,20.409997 -0.66,3.42 -3.73,4.87 -6.14,6.91 0.16,2.51 0.48,7.52 0.64,10.03 -1.23,-1.7 -1.71,-4.01 -3.49,-5.27 -1.25,4.7 -4.06,8.75 -6.48,12.9 -0.48,0.04 -1.43,0.11 -1.9,0.14 1.19,-4.54 4.33,-8.41 5.1,-13.11 -4.56,3.07 -6.78,8.57 -11.36,11.68 -2.42,0.8 -4.45,2.37 -6.75,3.44 -0.11,-2.37 2.64,-2.71 4.08,-4 5.79,-4.52 6.89,-11.74 8.57,-18.37 1.38,-5.71 9.2,-8.509999 8.41,-14.779997 -4.55,1.75 -3.78,8.989997 -8.74,9.449997 -3.45,7.26 -6.56,14.7 -8.35,22.56 l -0.89,0.21 c -1.12,-8.12 2.85,-15.05 5.95,-22.16 -2.71,-0.54 -1.56,2.8 -3.11,4.02 -2.37,0.48 -6,-3.23 -4.96,3.02 -0.99,3.95 -3.27,7.36 -4.78,11.11 -0.22,4.68 0.04,9.38 -0.2,14.07 -3.59,-2.1 -2.62,-6.72 -3.04,-10.26 -4.48,2.61 -5.59,8.56 -3.87,13.16 -1.74,0.2 -2.77,-1.2 -3.83,-2.31 -2.7,-9.03 10.43,-12.66 7.86,-21.76 -2.21,1.56 -4.51,3.09 -7.23,3.57 -4.64,-1.28 -7.61,-7.62 -12.83,-7.58 1.39,7.91 3.83,15.82 2.84,23.96 -2.19,11.75 2.61,23.3 2.27,35.08 1.16,13.27 2.57,26.6 1.76,39.93 -0.3,7.87 -4,14.92 -6.74,22.13 -4.15,6.06 -7.2,12.72 -10.75,19.14 1.52,2.79 2,5.73 0.7,8.74 2.76,6.92 8.08,11.71 13.68,16.3 2.28,5.64 4.92,11.49 4.26,17.74 -1.15,5.47 1.29,10.47 4.09,14.94 17.68,23.12 37.7,44.78 51.37,70.7 5.46,7.56 7.03,17.51 13.78,24.12 4.48,9.74 -1.01,20.26 -1.23,30.26 -1.11,8.2 -6.87,14.76 -8.19,22.9 -3.52,10.34 -5.26,21.17 -9.41,31.3 -2.78,10.94 -8.53,20.72 -13.34,30.84 -4.04,9.82 -11.61,17.83 -15.02,27.97 -1.09,4.2 -5.41,5.98 -8.33,8.71 -5.17,0.02 -10.71,1.32 -15.62,-0.83 -3.99,-1.73 -7.04,-5.02 -10.96,-6.87 -3.59,4.78 -2.93,11.04 -3.32,16.66 -1.39,0.14 -1.96,0.85 -1.71,2.14 2.64,2.26 6.76,0.78 9.92,2.12 4.01,-1.05 7.87,-3.11 12.09,-3.79 0.23,3 -3.78,2.84 -5.13,4.83 -2.1,3.52 -6.46,5 -7.93,9.04 -1.35,3.64 -5.23,5.06 -6.1,8.91 -8.01,9 -19.2,14.39 -29.18,20.91 -3.18154,0.2799 0.55665,0.24357 -7.68,0.08 -0.08,-3.44 -5.39,-4.24 -3.66,-8.57 -2.11,-15.38 11.97,-25.68 21.23,-35.63 1.19,-6.2 3.78,-12.01 6.38,-17.71 0.92,-2.35 4.15,-3.35 3.99,-6.13 -5.13,4.22 -9.55,9.26 -14.22,13.97 -7.38,-6.53 -15.81,-11.89 -21.54,-20.11 -1.75,-1.3 -2.27,-3.97 -4.23,-4.81 -1.5,1.16 -2.37,2.99 -3.65,4.4 -0.7,12.18 -3.67,24.12 -7.25,35.74 -0.28,1.12 0.05,2.04 0.99,2.77 4.74,-2.68 10.46,-1.96 15.72,-1.74 4.07,4.5 0.75,10.19 -3.16,13.54 -3.82,2.42 -6.67,6.02 -9.89,9.15 -5.48,4.64 -12.54,7.21 -17.02,13.02 -4.24,2.61 -4.82,-1.06 -6.3,-3.19 -1.24,-6.6 -4.27,-13.14 -3.09,-19.98 0.52,-8.88 2.83,-17.89 0.84,-26.74 -1.14,-7.08 -5.01,-13.52 -4.18,-20.91 0.9,-5.73 1.8,-11.98 5.17,-16.84 9.15,-1.3 18.4,-1.89 27.53,-3.38 5.99,-6.75 10.53,-14.72 16.24,-21.8 5.66,-6.43 8.15,-14.88 13.32,-21.64 9.64,-6.63 16.37,-16.38 23.9,-25.14 5.45,-6.3 9.07,-13.83 12.85,-21.17 1.77,-2.24 2.39,-5.06 2.84,-7.81 -4.02,-1.38 -4.69,-5.36 -5.13,-9.1 -6.04,-4.68 -13.09,-7.94 -18.78,-13.1 -9.71,-8.61 -19.66,-16.97 -29.3,-25.68 -15.05,-9.77 -30.22,-19.53 -43.88,-31.15 -9.46,-10.72 -17.09,-24.09 -18.2,-38.54 0.23,-9.28 -7.58,-15.45 -10.97,-23.32 -9.88,-13.69 -23.04,-24.77 -31.86,-39.2 -4.65,-10.5 -9.6,-20.82 -14.12,-31.43 -0.58,-6.29 -2.85,-12.35 -4.14,-18.52 0.43,-5.05 -1.64,-10.33 0.56,-15.12 2.02,-4.92 6.89,-7.84 9.69,-12.28 7.02,-10.44 20.05,-13.4 29.97,-20.09 13.2,-8.66 18.07,-24.48 27.74,-36.24 5.99,-6.399998 15.57,-5.709998 23.56,-7.599997 0.38,-3.63 -3.9,-3.11 -6.09,-2.03 0.03,-0.68 0.09,-2.05 0.12,-2.74 6.83,-6.12 17.41,-6.23 24.02,-11.98 -6.64,1.56 -13.67,-0.17 -20.19,1.71 0.08,-0.38 0.24,-1.13 0.33,-1.51 5.53,-2.45 11.65,-2.31 17.48,-3.62 2.45,-1.92999 4.87,-3.91999 6.37,-6.71999 -4.52,-0.71 -6.41,3.75 -9.09,6.16999 0.08,-2.64999 0.86,-5.21999 0.35,-7.85999 2.31,-4.53 5.59,-10.64 11.68,-9.37 1.83,-0.63 5.65,-0.03 5.02,-2.92 -4.78,-1.31 -8.78,1.46 -12.9,3.18 -3.52,0.54 -3.75,5.52 -7.16,5.92 5.97,-11.73 20.1,-13.710005 30.83,-19.210005 5.21,-1.29 10.3,-3.38 14.9,-6.19 2.32,-1 3.17,-3.83 5.87,-4.16 1.97,-2.36 3.42,-5.29 6.32,-6.64 6.59,-5.02 12.21,-11.37 19.41,-15.62 3.32,-2.25 5.37,0.36 7.7,1.75 1.45,-0.87 2.77,-1.95 4.27,-2.74 m -30.01,103.499992 c 0.67,6.74 -3.08,12.57 -5.05,18.49 -5.46,3.36 -4.8,10.95 -6.75,16.38 -1.12,2.47 0.62,4.85 0.5,7.34 -2.14,10.33 2.01,20.42 2.67,30.67 0.95,4.13 -1.47,8.39 0.15,12.43 1.08,4.62 -0.73,9.04 -2.42,13.23 -2.8,14.32 -14.2,24.69 -20.33,37.55 6.19,0.96 12.45,1.57 18.72,0.97 3.21,-1.89 2.83,-6.28 6.24,-7.84 3.07,-2.24 4.78,-5.99 5.45,-9.65 13.3,-17.52 11.01,-40.7 9.47,-61.31 l -0.94,-0.03 c 0.6,7.4 0.56,14.75 -0.71,22.08 0.26,6.44 -4.44,11.71 -4.48,18.08 -3.53,-3.8 -1,-9.62 -1.85,-14.17 -0.02,-5.14 -1.81,-10.01 -2.75,-15 2.94,-6.78 5.75,-13.63 6.99,-20.97 1.79,-4.89 -2.4,-9.16 -3.66,-13.67 -3.25,-5.97 -0.84,-13.14 -1.42,-19.57 3.03,4.3 3.03,10.25 4.14,15.36 4.2,-5.29 0.68,-13.01 1.74,-19.13 1.39,-5.03 -3.91,-7.17 -5.71,-11.24 m -105.94,57.63 c -4.58,1.01 -10.4,0.29 -13.24,4.7 -2.17,7.17 -3.33,15.37 -0.7,22.56 4.88,5.95 6.1,13.89 10.79,20.06 3.79,-0.1 4.54,4.17 6.72,6.44 0.4,-9.72 -0.15,-19.45 0.18,-29.17 1.22,-7.52 1.14,-15.16 0.74,-22.74 -1.11,-1.4 -2.57,-2.92 -4.49,-1.85 z"
     sodipodi:nodetypes="cccccccccccccccccccccccccccccccccccccccccccccccccccccccccccccccccccccccccccccccccccccccccccccccccccccccccccccccccccccccccccccccccccccccccccccccccccccccccccccc" />
  <path
     style="fill:#ffffff;fill-opacity:1;stroke:#000000;stroke-opacity:1"
     d="m 177.61082,140.657 9.7573,6.59221 9.7573,6.59222 3.43187,18.06071 8.19765,-3.59762 19.33936,-13.55224 -9.10849,-20.03869 -20.62751,-11.04068 -9.24662,9.13611 z"
     id="path3770"
     inkscape:connector-curvature="0"
     sodipodi:nodetypes="cccccccccc" />
  <path
     style="fill:#ffffff;fill-opacity:1;stroke:none"
     d="m 264.52828,568.73334 2.50483,-2.96026 6.14824,-8.42536 8.19764,-5.69281 -14.57359,-13.66273 -9.33621,-10.24706 -4.32653,4.32653 -2.27712,21.40497 -4.55425,15.02901 1.13857,2.96026 7.5145,-2.96026 z"
     id="path3776"
     inkscape:connector-curvature="0"
     sodipodi:nodetypes="cccccccccccc" />
  <path
     style="fill:#ffffff;fill-opacity:1;stroke:none"
     d="m 308.35849,545.02512 -2.57627,5.15255 -0.96611,12.23728 -1.61017,0.96611 0.16102,2.09322 9.82203,1.44915 14.11424,-4.13119 8.10611,-6.81797 -0.23581,-2.48195 -12.1706,0.31395 -5.94953,-2.27378 z"
     id="path3778"
     inkscape:connector-curvature="0"
     sodipodi:nodetypes="cccccccccccc" />
</svg>
